PathFileType	4	(X/Y/Z)	C:/Users/beibeiliu/ov580/test_trc/User3\sequence.21_training_dense_right.trc
DataRate	CameraRate	NumFrames	NumMarkers	Units	OrigDataRate	OrigDataStartFrame	OrigNumFrames
120	120	18	19	mm	120	34	265
Frame#	Time	ThumbCMC			ThumbMCP			ThumbIP			ThumbTip			IndexMCP			IndexPIP			IndexTip			MiddleMCP			MiddlePIP			MiddleTip			RingMCP			RingPIP			RingTip			PinkyMCP			PinkyPIP			PinkyTip			BackHand1			BackHand2			BackHand3	
		X0	Y0	Z0	X1	Y1	Z1	X2	Y2	Z2	X3	Y3	Z3	X4	Y4	Z4	X5	Y5	Z5	X6	Y6	Z6	X7	Y7	Z7	X8	Y8	Z8	X9	Y9	Z9	X10	Y10	Z10	X11	Y11	Z11	X12	Y12	Z12	X13	Y13	Z13	X14	Y14	Z14	X15	Y15	Z15	X16	Y16	Z16	X17	Y17	Z17	X18	Y18	Z18	
33	0.275	167.549	29.5731	-25.3795	157.889	42.8628	-56.403	162.895	36.3054	-87.7159	159.079	36.8778	-109.096	179.87	32.4086	-96.2171	149.942	21.5859	-93.8662	154.286	15.672	-60.0369	185.451	13.4388	-95.8407	154.412	1.94265	-88.9882	165.153	-1.0625	-52.4207	188.819	-5.63084	-88.2613	158.95	-14.7673	-76.5156	168.784	-4.70015	-45.4628	197.709	-26.404	-85.1681	166.778	-23.6414	-83.6292	161.904	-14.118	-55.8213	220.509	-3.28446	-40.7226	214.304	-11.0847	-10.7394	201.742	22.6523	-22.9791	
34	0.283333	164.051	35.0675	-22.5751	160.124	42.1559	-54.9324	161.988	43.9578	-86.0132	162.859	40.6932	-109.475	178.771	37.0372	-92.5645	153.983	19.5104	-92.3649	158.207	16.1935	-57.9327	187.89	14.9598	-93.6075	156.237	2.63753	-88.0401	166.723	-1.03505	-52.7023	189.113	-4.63045	-89.2694	160.224	-14.0676	-76.2342	167.852	-3.81786	-47.9307	197.525	-19.3724	-86.762	169.941	-23.0684	-84.8097	165.016	-11.2076	-54.7493	219.667	2.07875	-40.3821	212.424	-8.08542	-8.10985	203.503	25.2797	-21.7649	
35	0.291667	161.554	30.7385	-20.4141	157.033	41.6669	-50.3582	156.541	49.1727	-78.0805	163.472	46.5085	-101.078	180.544	42.1208	-87.775	155.565	22.0883	-89.3845	158.936	15.5689	-58.1766	189.369	23.8768	-91.2774	163.32	4.17967	-86.9427	169.045	3.22493	-49.3292	195.201	9.10132	-87.0103	170.729	-11.2236	-78.8295	171.371	-3.95389	-49.0838	206.828	-7.96934	-85.1223	179.138	-15.7113	-87.1086	162.052	-19.023	-65.2548	223.495	9.0723	-33.2479	214.642	-4.1714	-3.61657	195.074	30.5161	-14.0014	
36	0.3	151.802	28.7883	-18.2426	151.376	42.2712	-48.1295	155.027	48.5787	-79.5027	161.89	46.9854	-97.5861	176.647	43.9373	-89.3072	157.95	20.3763	-96.5988	160.487	10.6621	-63.9854	189.76	27.2228	-91.4248	171.556	1.75203	-92.7141	175.762	1.40688	-49.1389	198.736	9.28841	-86.7576	178.314	-12.7687	-79.2155	176.317	-5.88277	-47.7583	214.337	-3.30098	-82.2189	190.513	-12.5664	-86.6792	174.714	-5.24166	-58.7145	217.642	22.5382	-33.2258	212.795	7.9873	-3.25011	191.118	32.8633	-17.2545	
37	0.308333	150.971	24.5442	-18.828	149.004	40.4661	-50.2263	153.609	46.0497	-78.8247	156.983	51.358	-99.2847	174.271	46.7697	-86.3001	159.829	19.7442	-96.2103	163.207	9.26826	-61.5004	187.976	30.346	-91.427	173.834	3.43301	-92.2312	177.974	-0.181987	-51.5079	206.642	15.1949	-84.4505	184.374	-7.63328	-87.0979	178.624	-4.87888	-52.2605	219.152	3.97678	-79.4913	192.185	-10.4461	-83.1601	187.519	-10.8069	-56.1349	217.324	26.6755	-30.3819	209.659	8.76594	-3.87987	187.896	34.1438	-14.0265	
38	0.316667	151.92	17.8499	-21.6208	145.172	35.2413	-51.4217	154.794	41.7174	-79.8328	156.775	46.2428	-100.257	175.668	45.9559	-85.3884	161.974	14.6446	-97.4697	167.754	5.37618	-67.5006	191.821	30.5244	-88.309	172.017	2.1718	-92.261	178.248	-0.71757	-51.4353	206.109	13.7734	-84.4834	184.341	-10.8521	-81.6857	181.613	-8.25299	-50.9012	219.483	3.86849	-83.6143	195.815	-12.428	-83.1956	190.155	-8.43899	-52.825	216.854	26.7119	-28.341	210.014	10.3797	-5.47966	182.162	34.6104	-15.6307	
39	0.325	149.537	9.3421	-21.189	144.229	21.5427	-50.3263	151.878	24.3803	-77.2162	156.497	28.0274	-100.248	169.795	44.92	-84.7727	161.154	24.0222	-109.93	154.43	2.939	-85.426	188.439	22.5079	-93.1209	174.439	-6.05825	-94.1873	173.432	-7.44007	-54.14	202.843	13.8535	-89.6026	187.687	-12.4253	-90.4061	182.405	-11.8908	-55.6997	218.744	6.76792	-78.9712	200.005	-14.748	-84.7749	187.883	-10.1752	-54.7828	211.191	29.7696	-32.9397	211.984	12.3296	-6.03013	181.417	26.2704	-13.4977	
40	0.333333	154.152	3.75543	-22.3341	138.424	16.8869	-48.1678	148.615	21.7758	-78.5109	152.184	22.5612	-98.9495	171.048	29.7806	-93.3354	168.356	2.36369	-105.911	171.465	-11.8795	-76.5427	192.62	14.4279	-92.5061	180.611	-16.0448	-92.3184	184.961	-15.7224	-53.5728	207.585	3.90218	-86.3195	200.092	-23.6545	-83.9165	189.773	-19.7809	-50.254	224.495	-1.42607	-80.3805	206.931	-22.7737	-80.146	195.671	-17.7319	-52.5584	213.687	23.0294	-31.6123	210.184	6.99445	-1.72305	181.994	22.0631	-15.6057	
41	0.341667	157.328	-0.586535	-22.8024	142.781	6.05396	-47.0052	143.251	8.64479	-80.7694	152.594	8.14897	-100.633	170.316	22.3943	-94.3019	158.937	-3.55206	-111.671	163.762	-20.4734	-83.6171	187.875	10.819	-96.8687	182.866	-22.1181	-104.496	182.307	-25.9917	-60.6937	204.746	-5.2524	-91.1806	194.052	-34.2797	-84.61	193.734	-30.3734	-53.146	225.192	-13.2666	-82.3865	209.132	-35.213	-80.3367	200.125	-28.8583	-50.1673	219.182	18.93	-35.1407	218.517	9.22062	-6.53213	180.585	21.4499	-24.0117	
42	0.35	152.434	-5.1498	-24.5305	146.358	-2.40387	-59.3423	155.183	-6.01201	-89.461	163.186	-10.4829	-107.685	172.469	7.94328	-99.7545	161.597	-21.3951	-110.712	158.644	-28.8726	-77.1895	187.691	-0.301926	-99.5342	181.055	-33.4136	-103.908	180.592	-33.2047	-62.0611	206.059	-16.3278	-93.5887	194.955	-42.1867	-89.7086	184.616	-35.3621	-55.9692	222.261	-21.1087	-80.9396	206.281	-43.3407	-81.9938	194.329	-32.9726	-52.0356	213.491	12.4261	-40.4157	212.472	5.61788	-11.8702	181.749	16.9407	-27.0917	
43	0.358333	155.53	-7.89082	-22.3538	146.565	-12.7048	-51.435	141.446	-17.5706	-82.1305	161.156	-29.1873	-97.1062	169.169	-4.23806	-99.1301	156.898	-29.3236	-110.645	152.94	-42.7371	-75.1442	185.76	-12.5414	-101.801	172.349	-44.0898	-103.048	174.958	-45.5285	-63.499	204.617	-23.0729	-96.38	194.531	-49.3206	-96.6394	188.826	-53.1395	-62.7808	219.772	-35.5652	-83.4342	202.96	-55.5554	-78.653	194.386	-48.5522	-50.4084	213.378	6.87617	-39.8839	217.56	1.90202	-11.1563	185.917	12.6681	-25.2482	
44	0.366667	147.286	-15.1717	-34.8215	141.092	-19.9989	-63.1841	148.609	-25.9829	-94.8977	168.973	-37.6483	-111.958	173.584	-21.5701	-106.271	168.913	-52.6038	-103.446	166.255	-47.3583	-69.774	193.935	-29.791	-97.8514	187.746	-61.683	-87.4242	181.742	-49.3407	-54.5053	208.374	-35.9767	-89.4134	202.282	-64.3574	-79.6577	186.016	-53.2074	-53.1238	226.427	-43.3897	-69.9019	207.878	-62.2882	-66.6513	190.101	-43.1894	-44.1852	212.18	1.42316	-40.8998	204.097	3.2887	-12.3383	174.67	8.77523	-34.8392	
45	0.375	146.046	-15.1532	-32.4913	138.105	-20.8117	-59.0231	145.269	-30.0199	-91.8671	152.529	-41.294	-109.528	173.041	-31.0252	-104.829	164.657	-61.7129	-103.407	159.01	-59.4119	-71.117	195.018	-39.8333	-95.1512	182.327	-70.9307	-89.6929	171.43	-54.1158	-53.2659	209.999	-45.4303	-84.8646	196.683	-73.9818	-79.179	186.212	-62.792	-47.3222	219.392	-53.5371	-71.888	202.905	-72.5926	-62.3732	184.79	-52.0488	-45.6144	207.881	-3.63369	-46.6021	201.326	-2.39892	-10.912	175.363	2.15587	-37.982	
46	0.383333	149.993	-13.5176	-19.8883	136.15	-21.0077	-47.3788	139.681	-34.0207	-79.5035	138.556	-45.7452	-96.4258	156.575	-29.0358	-95.1139	143.663	-58.5633	-93.9758	141.322	-50.4676	-57.6831	178.295	-41.4476	-95.5274	156.143	-69.2072	-92.0542	158.107	-60.8915	-54.47	193.283	-55.9198	-87.6069	174.905	-77.5693	-80.7355	165.502	-65.1436	-50.3059	204.806	-62.4065	-72.5727	183.583	-79.5558	-66.3279	174.921	-57.9868	-43.1038	209.526	-18.2522	-47.2641	212.627	-13.8877	-13.9039	181.603	-0.494044	-29.6371	
47	0.391667	138.622	-14.0508	-24.9541	129.126	-26.0348	-52.2318	127.37	-38.7014	-77.856	129.233	-54.7549	-100.241	155.554	-39.4534	-95.0448	135.12	-68.5328	-91.5038	137.99	-62.3875	-59.3903	170.274	-51.6486	-92.2975	153.956	-80.1393	-80.998	151.296	-62.0046	-46.6793	183.993	-63.8974	-80.0124	168.793	-86.5604	-62.844	163.192	-62.6007	-37.8162	196.898	-72.3333	-66.7964	176.156	-83.2179	-56.9761	171.503	-57.457	-36.1761	202.075	-20.5191	-48.6981	202.731	-10.0748	-14.3533	172.352	-1.06799	-33.9395	
48	0.4	134.192	-11.0475	-25.0166	118.79	-22.2133	-52.0334	122.966	-40.1196	-77.3533	121.777	-54.6273	-96.3974	138.828	-42.6733	-92.7152	122.051	-68.4983	-80.0947	125.515	-54.158	-51.5462	154.127	-59.6732	-87.3225	137.535	-79.3994	-67.4146	145.55	-57.4013	-38.3292	168.665	-70.2059	-72.6389	150.966	-81.1936	-49.3694	159.546	-52.4393	-29.6877	181.612	-74.2405	-61.0942	160.477	-78.1231	-38.1971	164.325	-53.8651	-24.3189	194.063	-22.0237	-49.9183	201.026	-15.9361	-17.4299	170.99	-4.51367	-40.1534	
49	0.408333	131.124	-11.7302	-24.862	114.633	-24.735	-47.0297	103.955	-41.8547	-70.4959	103.174	-59.7633	-90.2854	127.606	-44.6826	-93.7959	108.36	-68.2151	-87.4282	111.835	-59.3111	-55.1275	140.272	-62.2127	-80.0259	122.237	-78.5449	-56.0376	141.437	-51.0582	-31.1989	147.888	-72.65	-68.5439	139.056	-80.6342	-40.9282	149.011	-54.4937	-25.7014	164.608	-77.9175	-58.9366	148.884	-76.35	-33.9939	164.72	-55.8536	-24.6469	184.39	-28.02	-55.3779	193.264	-16.6324	-21.1317	159.322	-3.39132	-37.615	
50	0.416667	128.883	-9.68394	-19.5234	106.532	-16.2329	-46.0312	99.7552	-34.2745	-69.4564	93.9374	-46.2788	-86.2816	120.723	-39.848	-84.5538	97.5731	-61.7614	-73.2361	105.796	-48.7947	-42.8898	128.641	-56.5003	-77.6708	110.674	-73.2715	-53.4627	134.281	-52.0048	-28.6691	143.584	-70.8782	-65.9538	128.395	-79.1502	-40.6313	142.734	-53.0518	-22.542	156.284	-75.7219	-57.3267	138.273	-76.5067	-34.1218	153.29	-51.169	-24.9132	181.089	-32.7562	-52.1664	188.086	-18.712	-18.0946	160.036	-5.95695	-36.6185	
